<?xml version="1.0" encoding="UTF-8"?>
<svg width="1024px" height="74px" viewBox="0 0 1024 74" version="1.1" xmlns="http://www.w3.org/2000/svg" xmlns:xlink="http://www.w3.org/1999/xlink">
    <!-- Generator: Sketch 42 (36781) - http://www.bohemiancoding.com/sketch -->
    <title>Fill 2</title>
    <desc>Created with Sketch.</desc>
    <defs></defs>
    <g id="Page-2" stroke="none" stroke-width="1" fill="none" fill-rule="evenodd" opacity="0.400000006">
        <g id="Desktop-Copy" transform="translate(0.000000, -1350.000000)" fill="#FFFFFF">
            <g id="loading-copy" transform="translate(512.000000, 1182.000000) scale(1, -1) translate(-512.000000, -1182.000000) translate(0.000000, 920.000000)">
                <path d="M0,69.7093223 C0,69.7093223 36.28476,22.3431554 165.063,23.8202429 C267.629571,24.997327 288.39936,55.5231667 348.058965,55.5900465 C397.197312,55.6435503 453.271552,22.5170427 504.433323,23.8202428 C555.125419,25.1119779 601.074347,58.859512 650.717867,59.1193877 C699.080704,59.37162 739.8515,21.5004701 817.182037,20.2909016 C894.512575,19.0813331 917.345856,45.8447072 951.058667,55.5900458 C1003.4902,70.7430918 1024,73.2386635 1024,73.2386635 L1024,93.6618357 L0,93.6618357 L0,69.7093223 Z" id="Fill-2" style="mix-blend-mode: overlay;"></path>
            </g>
        </g>
    </g>
</svg>