<?xml version="1.0" encoding="UTF-8"?>
<svg width="1024px" height="59px" viewBox="0 0 1024 59" version="1.1" xmlns="http://www.w3.org/2000/svg" xmlns:xlink="http://www.w3.org/1999/xlink">
    <!-- Generator: Sketch 42 (36781) - http://www.bohemiancoding.com/sketch -->
    <title>Fill 4</title>
    <desc>Created with Sketch.</desc>
    <defs></defs>
    <g id="Page-2" stroke="none" stroke-width="1" fill="none" fill-rule="evenodd">
        <g id="Desktop-Copy" transform="translate(0.000000, -1350.000000)" fill="#FFFFFF">
            <g id="loading-copy" transform="translate(512.000000, 1182.000000) scale(1, -1) translate(-512.000000, -1182.000000) translate(0.000000, 920.000000)">
                <path d="M1024,73.5939074 C1017.78227,76.8628318 975.973035,81.5118017 892.84608,70.1259561 C854.010539,64.8048007 819.549525,39.4776782 771.781973,38.9087615 C724.216491,38.3417223 662.973099,67.4616232 610.364075,66.6561272 C534.700032,65.5013952 505.965227,39.042072 453.989717,38.9087615 C403.936597,38.7792062 364.696917,58.4396925 317.792256,59.7202246 C247.635968,61.6353899 186.545493,35.5797535 131.15392,35.4408102 C37.666816,35.2042309 0,70.1259561 0,70.1259561 L0,93.6618357 L1024,93.6618357 L1024,73.5939074 Z" id="Fill-4"></path>
            </g>
        </g>
    </g>
</svg>